<svg width="36" height="36" viewBox="0 0 36 36" fill="none" xmlns="http://www.w3.org/2000/svg">
<g clip-path="url(#clip0_139_1748)">
<path d="M15.068 18.7102C14.8008 18.5906 14.4352 18.5274 13.957 18.5203H11.2148V21.4875H13.9219C14.407 21.4875 14.7797 21.4242 15.0469 21.2906C15.5391 21.0445 15.7781 20.5875 15.7781 19.9055C15.7781 19.3289 15.5391 18.9281 15.068 18.7102Z" fill="#99DDFF"/>
<path d="M24.1945 17.1914C23.85 16.8961 23.421 16.7484 22.9148 16.7484C22.3664 16.7484 21.9375 16.9031 21.6281 17.2195C21.3257 17.5359 21.1359 17.9578 21.0515 18.4922H24.757C24.7289 17.9226 24.532 17.4937 24.1945 17.1914Z" fill="#99DDFF"/>
<path d="M15.1032 16.4039C15.4055 16.2211 15.5532 15.8906 15.5532 15.4266C15.5532 14.9063 15.3563 14.5688 14.9555 14.4C14.611 14.2875 14.175 14.2242 13.6407 14.2242H11.2219V16.6781H13.9219C14.4071 16.6852 14.7938 16.5938 15.1032 16.4039Z" fill="#99DDFF"/>
<path d="M0 0V36H36V0H0ZM20.5031 12.818H25.2703V14.2031H20.5031V12.818ZM17.6273 21.8391C17.4164 22.1836 17.1562 22.4789 16.8398 22.7109C16.4883 22.9852 16.0664 23.168 15.5813 23.2734C15.0961 23.3719 14.5758 23.4211 14.0062 23.4211H9V12.2977H14.3789C15.7359 12.3187 16.6992 12.7125 17.2617 13.4859C17.5992 13.957 17.768 14.5266 17.768 15.1875C17.768 15.8625 17.5992 16.4109 17.2547 16.8258C17.0648 17.0578 16.7766 17.2688 16.4039 17.4586C16.9734 17.6695 17.4023 17.993 17.6906 18.443C17.9789 18.893 18.1266 19.4344 18.1266 20.0742C18.1266 20.7211 17.9578 21.3117 17.6273 21.8391ZM27 19.9125H21.0094C21.0445 20.7352 21.3258 21.3188 21.8672 21.6492C22.1977 21.8531 22.5914 21.9586 23.0555 21.9586C23.5406 21.9586 23.9414 21.832 24.2508 21.5789C24.4195 21.4453 24.5672 21.2555 24.6938 21.0094H26.8875C26.8312 21.4945 26.5641 21.9937 26.093 22.5C25.3547 23.3016 24.3281 23.7023 22.9992 23.7023C21.9023 23.7023 20.9391 23.3648 20.1023 22.6898C19.2656 22.0148 18.8438 20.918 18.8438 19.3992C18.8438 17.9719 19.2234 16.882 19.9758 16.1227C20.7352 15.3633 21.7125 14.9836 22.9148 14.9836C23.632 14.9836 24.2789 15.1102 24.8484 15.3703C25.425 15.6234 25.8961 16.0312 26.2688 16.5867C26.6063 17.0719 26.8242 17.6414 26.9227 18.2883C26.9859 18.6609 27.007 19.2023 27 19.9125Z" fill="#99DDFF"/>
</g>
<defs>
<clipPath id="clip0_139_1748">
<rect width="36" height="36" fill="white"/>
</clipPath>
</defs>
</svg>
