<svg width="36" height="36" viewBox="0 0 36 36" fill="none" xmlns="http://www.w3.org/2000/svg">
<g clip-path="url(#clip0_495_196)">
<path d="M22.9219 18.0005C22.9219 20.7146 20.7141 22.9224 18 22.9224C15.2859 22.9224 13.0781 20.7146 13.0781 18.0005C13.0781 17.3466 13.2117 16.7208 13.4438 16.1513H10.7578V23.52C10.7578 24.4692 11.5312 25.2427 12.4805 25.2427H23.5195C24.4688 25.2427 25.2422 24.4692 25.2422 23.52V16.1513H22.5563C22.7953 16.7208 22.9219 17.3466 22.9219 18.0005Z" fill="white"/>
<path d="M24.9187 14.1263V11.4685V11.0747H24.525L21.8672 11.0817L21.8812 14.1333L24.9187 14.1263Z" fill="white"/>
<path d="M18 21.1645C19.7437 21.1645 21.171 19.7442 21.171 17.9935C21.171 17.3044 20.946 16.6645 20.5734 16.1442C19.9968 15.3497 19.0617 14.8224 18.007 14.8224C16.9523 14.8224 16.0171 15.3427 15.4406 16.1442C15.0679 16.6645 14.8429 17.3044 14.8429 17.9935C14.8359 19.7442 16.2562 21.1645 18 21.1645Z" fill="white"/>
<path d="M0 0.000488281V36.0005H36V0.000488281H0ZM27 16.1513V23.52C27 25.4396 25.4391 27.0005 23.5195 27.0005H12.4805C10.5609 27.0005 9 25.4396 9 23.52V16.1513V12.4739C9 10.5544 10.5609 8.99346 12.4805 8.99346H23.5195C25.4391 8.99346 27 10.5544 27 12.4739V16.1513Z" fill="white"/>
</g>
<defs>
<clipPath id="clip0_495_196">
<rect width="36" height="36" fill="white" transform="translate(0 0.000488281)"/>
</clipPath>
</defs>
</svg>
