<svg width="36" height="36" viewBox="0 0 36 36" fill="none" xmlns="http://www.w3.org/2000/svg">
<g clip-path="url(#clip0_71_2492)">
<path fill-rule="evenodd" clip-rule="evenodd" d="M0 0V36H36V0H0ZM30.4468 7.96589L26.2172 28.3107C26.1176 28.7911 25.5543 29.0087 25.1569 28.7199L19.383 24.528C19.0325 24.2735 18.5546 24.287 18.219 24.5606L15.0178 27.1701C14.6463 27.4739 14.0864 27.3046 13.9442 26.8471L11.7214 19.6984L5.97853 17.5551C5.39517 17.3366 5.39019 16.513 5.97189 16.2889L29.5406 7.19676C30.0402 7.00354 30.5557 7.44124 30.4468 7.96589Z" fill="#99DDFF"/>
<path fill-rule="evenodd" clip-rule="evenodd" d="M24.8096 11.6449L13.586 18.5575C13.1559 18.823 12.9534 19.3425 13.0922 19.8288L14.3056 24.0927C14.392 24.3948 14.8303 24.3639 14.8723 24.0518L15.1877 21.7136C15.2473 21.2733 15.4572 20.8675 15.7828 20.5646L25.0454 11.9545C25.2189 11.7939 25.0112 11.5211 24.8096 11.6449Z" fill="#99DDFF"/>
</g>
<defs>
<clipPath id="clip0_71_2492">
<rect width="36" height="36" fill="white"/>
</clipPath>
</defs>
</svg>
