<svg width="36" height="36" viewBox="0 0 36 36" fill="none" xmlns="http://www.w3.org/2000/svg">
<g clip-path="url(#clip0_495_202)">
<path fill-rule="evenodd" clip-rule="evenodd" d="M0 0.000488281V36.0005H36V0.000488281H0ZM30.4468 7.96638L26.2172 28.3112C26.1176 28.7915 25.5543 29.0092 25.1569 28.7204L19.383 24.5285C19.0325 24.274 18.5546 24.2875 18.219 24.5611L15.0178 27.1706C14.6463 27.4744 14.0864 27.3051 13.9442 26.8475L11.7214 19.6989L5.97853 17.5556C5.39517 17.3371 5.39019 16.5135 5.97189 16.2894L29.5406 7.19724C30.0402 7.00403 30.5557 7.44173 30.4468 7.96638Z" fill="white"/>
<path fill-rule="evenodd" clip-rule="evenodd" d="M24.8096 11.6454L13.586 18.558C13.1559 18.8234 12.9534 19.3429 13.0922 19.8293L14.3056 24.0932C14.392 24.3953 14.8303 24.3644 14.8723 24.0523L15.1877 21.714C15.2473 21.2738 15.4572 20.868 15.7828 20.565L25.0454 11.9549C25.2189 11.7943 25.0112 11.5216 24.8096 11.6454Z" fill="white"/>
</g>
<defs>
<clipPath id="clip0_495_202">
<rect width="36" height="36" fill="white" transform="translate(0 0.000488281)"/>
</clipPath>
</defs>
</svg>
