<svg width="36" height="36" viewBox="0 0 36 36" fill="none" xmlns="http://www.w3.org/2000/svg">
<g clip-path="url(#clip0_495_208)">
<path fill-rule="evenodd" clip-rule="evenodd" d="M0 0.000488281V36.0005H36V0.000488281H0ZM27.91 12.9177C27.9197 13.1371 27.9247 13.3577 27.9247 13.5791C27.9247 20.3363 22.7817 28.1276 13.3765 28.1276C10.4889 28.1276 7.80116 27.2812 5.53838 25.8301C5.93842 25.8777 6.34534 25.9019 6.75819 25.9019C9.15381 25.9019 11.3585 25.0845 13.1086 23.7128C10.8711 23.6717 8.98259 22.1933 8.33182 20.1618C8.64419 20.2217 8.96455 20.2539 9.29401 20.2539C9.76035 20.2539 10.2121 20.191 10.6412 20.0744C8.30215 19.6045 6.5395 17.538 6.5395 15.0607C6.5395 15.0391 6.5395 15.0176 6.53997 14.9963C7.22927 15.3792 8.01764 15.6093 8.85592 15.6359C7.48381 14.719 6.58135 13.1538 6.58135 11.38C6.58135 10.4428 6.83351 9.56454 7.27374 8.80917C9.79556 11.9029 13.5633 13.9384 17.8129 14.1519C17.7256 13.7775 17.6802 13.3872 17.6802 12.9865C17.6802 10.1629 19.9698 7.87349 22.7935 7.87349C24.2642 7.87349 25.5932 8.49435 26.5258 9.48803C27.6904 9.25898 28.7848 8.83323 29.7728 8.24734C29.3911 9.44143 28.5804 10.4433 27.5246 11.0762C28.559 10.9526 29.5444 10.6776 30.4614 10.2709C29.776 11.2963 28.9092 12.1969 27.91 12.9177Z" fill="white"/>
</g>
<defs>
<clipPath id="clip0_495_208">
<rect width="36" height="36" fill="white" transform="translate(0 0.000488281)"/>
</clipPath>
</defs>
</svg>
