<svg width="36" height="36" viewBox="0 0 36 36" fill="none" xmlns="http://www.w3.org/2000/svg">
<g clip-path="url(#clip0_71_2498)">
<path fill-rule="evenodd" clip-rule="evenodd" d="M0 0V36H36V0H0ZM27.91 12.9172C27.9197 13.1366 27.9247 13.3572 27.9247 13.5786C27.9247 20.3358 22.7817 28.1271 13.3765 28.1271C10.4889 28.1271 7.80116 27.2807 5.53838 25.8296C5.93842 25.8772 6.34534 25.9014 6.75819 25.9014C9.15381 25.9014 11.3585 25.084 13.1086 23.7123C10.8711 23.6712 8.98259 22.1929 8.33182 20.1613C8.64419 20.2212 8.96455 20.2534 9.29401 20.2534C9.76035 20.2534 10.2121 20.1905 10.6412 20.0739C8.30215 19.604 6.5395 17.5375 6.5395 15.0602C6.5395 15.0386 6.5395 15.0171 6.53997 14.9958C7.22927 15.3787 8.01764 15.6088 8.85592 15.6354C7.48381 14.7185 6.58135 13.1533 6.58135 11.3795C6.58135 10.4423 6.83351 9.56405 7.27374 8.80869C9.79556 11.9024 13.5633 13.9379 17.8129 14.1514C17.7256 13.777 17.6802 13.3867 17.6802 12.986C17.6802 10.1624 19.9698 7.873 22.7935 7.873C24.2642 7.873 25.5932 8.49386 26.5258 9.48754C27.6904 9.25849 28.7848 8.83274 29.7728 8.24685C29.3911 9.44094 28.5804 10.4428 27.5246 11.0757C28.559 10.9521 29.5444 10.6771 30.4614 10.2704C29.776 11.2958 28.9092 12.1964 27.91 12.9172Z" fill="#99DDFF"/>
</g>
<defs>
<clipPath id="clip0_71_2498">
<rect width="36" height="36" fill="white"/>
</clipPath>
</defs>
</svg>
