<svg width="36" height="36" viewBox="0 0 36 36" fill="none" xmlns="http://www.w3.org/2000/svg">
<g clip-path="url(#clip0_495_206)">
<path fill-rule="evenodd" clip-rule="evenodd" d="M0 0.000488281V36.0005H36V0.000488281H0ZM26.988 19.9174C27.8144 20.7236 28.6883 21.4827 29.43 22.374C29.7578 22.7678 30.0678 23.1741 30.304 23.6305C30.6394 24.2843 30.3354 25.0007 29.7513 25.0402L26.1217 25.0386C25.1848 25.1156 24.4382 24.7379 23.8086 24.0969C23.3079 23.5866 22.8399 23.0403 22.3566 22.5127C22.1599 22.2954 21.9519 22.0922 21.7047 21.9302C21.2088 21.6089 20.7787 21.7064 20.4953 22.2229C20.2071 22.7489 20.1394 23.333 20.1128 23.9188C20.0733 24.7739 19.8153 24.9975 18.957 25.0387C17.1208 25.1237 15.3794 24.8448 13.762 23.9204C12.3338 23.1049 11.2284 21.9519 10.2662 20.6483C8.39085 18.1066 6.95457 15.3162 5.66498 12.4456C5.37349 11.7986 5.58641 11.4519 6.29786 11.4394C7.48389 11.416 8.66943 11.4188 9.85379 11.4378C10.3356 11.4459 10.6552 11.7212 10.8395 12.1763C11.4804 13.7513 12.2644 15.2502 13.2486 16.6409C13.5118 17.0109 13.7795 17.3794 14.1588 17.6406C14.5792 17.9305 14.9005 17.8358 15.0988 17.3649C15.225 17.0658 15.2802 16.7478 15.3068 16.428C15.4011 15.3336 15.4124 14.2379 15.25 13.1467C15.1492 12.4646 14.7635 12.0235 14.0834 11.8946C13.7367 11.8284 13.7886 11.701 13.9556 11.5023C14.2486 11.1609 14.5244 10.948 15.0706 10.948H19.1728C19.8198 11.0742 19.9649 11.3656 20.0528 12.0159L20.056 16.5747C20.0484 16.8267 20.1822 17.5728 20.6341 17.7381C20.9961 17.8578 21.2372 17.5664 21.4544 17.3366C22.4369 16.2941 23.1379 15.0614 23.7643 13.7859C24.0416 13.2251 24.2811 12.6427 24.5141 12.0597C24.6858 11.6283 24.9535 11.4159 25.4401 11.4236L29.3895 11.4284C29.5059 11.4284 29.6257 11.4284 29.7406 11.4473C30.4049 11.5622 30.5876 11.8488 30.3812 12.4991C30.0587 13.5177 29.427 14.3683 28.8114 15.2201C28.1514 16.132 27.4492 17.012 26.7942 17.9286C26.1959 18.768 26.2431 19.1901 26.988 19.9174Z" fill="white"/>
</g>
<defs>
<clipPath id="clip0_495_206">
<rect width="36" height="36" fill="white" transform="translate(0 0.000488281)"/>
</clipPath>
</defs>
</svg>
